<svg xmlns="http://www.w3.org/2000/svg" viewBox="0 0 842.5 842.5"><path d="M455.8 273.8c0-13.5 9.6-25 32.2-24.8 15.5.2 20.4 3.7 20.4 3.7l-5.4 14.2c-5.3-2-8.8-3.5-16.1-3.7-7.3-.1-13.8 3.7-13.1 8.1.9 5.6 9.2 8.3 15.9 11.7s14.3 9.5 14.1 19.7c0 20.1-20 25.9-32.5 26.2s-20.2-3-25.4-6.1l5.9-13.8c6 2.2 12.9 5.3 20.6 5.4s12.8-3.2 13-8.8c.1-6.2-12.5-11-16.1-12.8-3.7-1.7-13.5-7.9-13.5-19zm-34 53.8l11.8-63.1h17.5c3.3-10.3 9.3-12.4 15.1-14.9h-65.7l-2.9 14.9h18.6l-11.4 63.1h17zm-91.6 0h51.9l2.6-14.6h-34.4l3.4-18h30.9l2.6-14.5h-30.6l2.8-16h32.5l3-14.9h-50.2l-14.5 78z" fill="#004b8e"/><path d="M365.5 236.8s39.9-48.4 111-47.7c62.1.5 87.2 36.1 88 70.8.8 34.1-39.8 67.8-39.8 67.8s20.1-28.3 19.8-58.9c-.3-37.3-25.8-64.5-79.8-65.4-53.6-1-99.2 33.4-99.2 33.4z" fill="#8a2529"/><path d="M373.4 215.6c-37.7 12-95.6 53-95.3 100.9.2 40.4 37.2 69.9 99.8 70 95.8.1 144.8-57.6 144.8-57.6s-49.2 42.2-130.3 44.5c-38.8 1.1-93.8-14.5-92.9-62.2 1-59.3 73.9-95.6 73.9-95.6zm178.743 129.118H549.9l-1.068-3.295c-.194-.618-.486-1.133-.874-1.44s-.874-.515-1.554-.515h-2.525v5.25h-2.04v-12.87h5.342c.68 0 1.263.103 1.748.206a2.82 2.82 0 0 1 1.36.618c.388.3.68.618.874 1.133s.3 1.03.3 1.75c0 .927-.194 1.647-.68 2.162-.486.618-1.165.927-1.942 1.133.486.206.777.515 1.165.927s.583.927.777 1.544l1.36 3.398zm-8.255-7.104h3.108c.486 0 .874 0 1.165-.103s.583-.206.777-.412.388-.412.486-.618c.097-.3.194-.618.194-.927 0-.72-.194-1.133-.583-1.544-.388-.3-.97-.515-1.748-.515h-3.4v4.118z" fill="#004b8e"/><path d="M557.3 338.4c0 5.7-4.6 10.3-10.3 10.3s-10.3-4.6-10.3-10.3 4.6-10.3 10.3-10.3c5.7-.1 10.3 4.6 10.3 10.3z" fill="none" stroke="#004b8e"/><path d="M749.24 646.27h-2.234l-1.068-3.295c-.194-.618-.486-1.133-.874-1.44s-.874-.515-1.554-.515h-2.525v5.25h-2.04V633.4h5.342c.68 0 1.263.103 1.748.206a2.82 2.82 0 0 1 1.36.618c.388.31.68.618.874 1.133s.29 1.03.29 1.75c0 .927-.194 1.647-.68 2.162-.486.618-1.165.927-1.942 1.133.486.206.777.515 1.165.927a5.57 5.57 0 0 1 .777 1.544l1.36 3.398zm-8.255-7h3.108c.486 0 .874 0 1.165-.103s.583-.206.777-.412.388-.412.486-.618c.097-.31.194-.618.194-.927 0-.72-.194-1.133-.583-1.544-.388-.31-.97-.515-1.748-.515h-3.4v4.118z" fill="#004b8e"/><path d="M754.4 639.9c0 5.7-4.6 10.3-10.3 10.3s-10.3-4.6-10.3-10.3 4.6-10.3 10.3-10.3 10.3 4.6 10.3 10.3z" fill="none" stroke="#004b8e"/><path d="M303.5 466.4c-66 0-98.2 60.7-97.6 111.6.6 53 37.7 75.4 72.1 75.4 67.9 0 96.6-60.9 96.7-110.4 0-35-14-76.6-71.2-76.6zm-4.7 26.3c35.7 0 42.4 26.4 42.7 48.8.5 34.6-17.2 86.2-58.7 85.8-36.1-.4-43.5-28-43.5-50.2 0-45.3 25.1-84.4 59.5-84.4zm-158 158l28.9-154.8h49.9l5.5-27.2H93l-4.9 27.2H138l-28.9 154.8h31.7zm230.5 0l35-182H507l-5.2 27.2h-69.7l-8.8 47.5h65.1l-5 25.9h-64.9l-10.1 54.4h72.4l-5.1 27H371.3zm125.7 0l34.8-182h100.1l-5.1 27.2h-68.7l-9.9 50.8h63.9l-5.9 27.1h-63.3l-14.3 76.9H497zm118.4 0l34.6-182h32l-30.1 155h71.4l-4.9 27h-103z" fill="#004b8e"/></svg>